<svg width="49" height="48" viewBox="0 0 49 48" fill="none" xmlns="http://www.w3.org/2000/svg">
<path d="M0.5 15C0.5 9.74951 0.5 7.12426 1.52181 5.11884C2.42063 3.35482 3.85482 1.92063 5.61884 1.02181C7.62426 0 10.2495 0 15.5 0H33.5C38.7505 0 41.3757 0 43.3812 1.02181C45.1452 1.92063 46.5794 3.35482 47.4782 5.11884C48.5 7.12426 48.5 9.74951 48.5 15V33C48.5 38.2505 48.5 40.8757 47.4782 42.8812C46.5794 44.6452 45.1452 46.0794 43.3812 46.9782C41.3757 48 38.7505 48 33.5 48H15.5C10.2495 48 7.62426 48 5.61884 46.9782C3.85482 46.0794 2.42063 44.6452 1.52181 42.8812C0.5 40.8757 0.5 38.2505 0.5 33V15Z" fill="url(#paint0_radial_105_36134)"/>
<path d="M40.25 24C40.25 32.6985 33.1985 39.75 24.5 39.75C15.8015 39.75 8.75 32.6985 8.75 24C8.75 15.3015 15.8015 8.25 24.5 8.25C33.1985 8.25 40.25 15.3015 40.25 24Z" fill="url(#paint1_linear_105_36134)"/>
<path fill-rule="evenodd" clip-rule="evenodd" d="M31.4375 24C31.4375 20.1685 28.3315 17.0625 24.5 17.0625C20.6685 17.0625 17.5625 20.1685 17.5625 24C17.5625 27.8315 20.6685 30.9375 24.5 30.9375C28.3315 30.9375 31.4375 27.8315 31.4375 24ZM18.875 24C18.875 20.8934 21.3934 18.375 24.5 18.375C27.6066 18.375 30.125 20.8934 30.125 24C30.125 27.1066 27.6066 29.625 24.5 29.625C21.3934 29.625 18.875 27.1066 18.875 24Z" fill="url(#paint2_radial_105_36134)"/>
<defs>
<radialGradient id="paint0_radial_105_36134" cx="0" cy="0" r="1" gradientUnits="userSpaceOnUse" gradientTransform="translate(24.5) rotate(90) scale(48)">
<stop stop-color="#006FFF"/>
<stop offset="1" stop-color="#003C9E"/>
</radialGradient>
<linearGradient id="paint1_linear_105_36134" x1="41.3043" y1="40.0219" x2="41.8481" y2="5.32562" gradientUnits="userSpaceOnUse">
<stop stop-color="#C2C4CE"/>
<stop offset="0.39697" stop-color="#D6D9E2"/>
<stop offset="1" stop-color="white"/>
</linearGradient>
<radialGradient id="paint2_radial_105_36134" cx="0" cy="0" r="1" gradientUnits="userSpaceOnUse" gradientTransform="translate(24.5 17.0625) rotate(90) scale(13.875)">
<stop stop-color="#005ED9"/>
<stop offset="1" stop-color="#003386"/>
</radialGradient>
</defs>
</svg>
